<?xml version="1.0"?>
<svg xmlns="http://www.w3.org/2000/svg" viewBox="0 0 1280 640" width="1280" height="640">
  <defs>
    <linearGradient id="bg" x1="0" y1="0" x2="0.35" y2="1"><stop offset="0" stop-color="#f3f1f7"></stop><stop offset="1" stop-color="#e7e5ef"></stop></linearGradient>
    <radialGradient id="glow" cx="0%" cy="100%" r="70%"><stop offset="0%" stop-color="#b7bbc9" stop-opacity="0.50"></stop><stop offset="100%" stop-color="#b7bbc9" stop-opacity="0"></stop></radialGradient>
    <radialGradient id="cubeglow" cx="50%" cy="50%" r="50%"><stop offset="0%" stop-color="#40a02b" stop-opacity="0.22"></stop><stop offset="30%" stop-color="#40a02b" stop-opacity="0.10"></stop><stop offset="100%" stop-color="#40a02b" stop-opacity="0"></stop></radialGradient>
    <pattern id="fine" width="32" height="32" patternUnits="userSpaceOnUse"><path d="M32 0H0V32" fill="none" stroke="rgba(76,79,105,0.05)" stroke-width="1"></path></pattern>
    <pattern id="major" width="128" height="128" patternUnits="userSpaceOnUse"><path d="M128 0H0V128" fill="none" stroke="rgba(76,79,105,0.085)" stroke-width="1"></path><path d="M-5 0H5M0 -5V5" stroke="rgba(4,165,229,0.28)" stroke-width="1"></path></pattern>
    <linearGradient id="boxgrad" x1="0" y1="0" x2="1" y2="0"><stop offset="0" stop-color="#40a02b"></stop><stop offset="0.14" stop-color="#179299"></stop><stop offset="0.28" stop-color="#04a5e5"></stop><stop offset="0.42" stop-color="#1e66f5"></stop><stop offset="0.55" stop-color="#7287fd"></stop><stop offset="0.68" stop-color="#8839ef"></stop><stop offset="0.80" stop-color="#ea76cb"></stop><stop offset="0.91" stop-color="#fe640b"></stop><stop offset="1" stop-color="#df8e1d"></stop></linearGradient>
  </defs>

  <rect width="1280" height="640" fill="url(#bg)"></rect>
  <rect width="1280" height="640" fill="url(#fine)"></rect>
  <rect width="1280" height="640" fill="url(#major)"></rect>
  <rect width="1280" height="640" fill="url(#glow)"></rect>

  <g stroke="#7a8a72" stroke-width="2" fill="none">
    <path d="M 32 64 L 32 32 L 64 32"></path><path d="M 1216 32 L 1248 32 L 1248 64"></path><path d="M 32 576 L 32 608 L 64 608"></path><path d="M 1216 608 L 1248 608 L 1248 576"></path>
  </g>

  <g transform="translate(30,283) scale(1.5)">
    <polygon points="100,10 190,55 100,100 10,55" fill="#fbfaff" stroke="#4c4f69" stroke-width="1.5"></polygon>
    <polygon points="10,55 100,100 100,210 10,165" fill="#bcc0cc" stroke="#4c4f69" stroke-width="1.5"></polygon>
    <polygon points="190,55 100,100 100,210 190,165" fill="#dce0e8" stroke="#4c4f69" stroke-width="1.5"></polygon>
  </g>

  <g transform="translate(-45,30) translate(380,278) scale(1.3) translate(-380,-278)">
  <g transform="translate(380,110)"><rect x="0" y="0" width="28" height="28" rx="3" ry="3" fill="#40a02b"></rect><rect x="28" y="0" width="28" height="28" rx="3" ry="3" fill="#179299"></rect><rect x="56" y="0" width="28" height="28" rx="3" ry="3" fill="#04a5e5"></rect><rect x="84" y="0" width="28" height="28" rx="3" ry="3" fill="#1e66f5"></rect><rect x="0" y="28" width="28" height="28" rx="3" ry="3" fill="#179299"></rect><rect x="112" y="28" width="28" height="28" rx="3" ry="3" fill="#7287fd"></rect><rect x="0" y="56" width="28" height="28" rx="3" ry="3" fill="#04a5e5"></rect><rect x="28" y="56" width="28" height="28" rx="3" ry="3" fill="#1e66f5"></rect><rect x="56" y="56" width="28" height="28" rx="3" ry="3" fill="#7287fd"></rect><rect x="84" y="56" width="28" height="28" rx="3" ry="3" fill="#8839ef"></rect><rect x="0" y="84" width="28" height="28" rx="3" ry="3" fill="#1e66f5"></rect><rect x="112" y="84" width="28" height="28" rx="3" ry="3" fill="#ea76cb"></rect><rect x="0" y="112" width="28" height="28" rx="3" ry="3" fill="#7287fd"></rect><rect x="112" y="112" width="28" height="28" rx="3" ry="3" fill="#fe640b"></rect><rect x="0" y="140" width="28" height="28" rx="3" ry="3" fill="#8839ef"></rect><rect x="28" y="140" width="28" height="28" rx="3" ry="3" fill="#ea76cb"></rect><rect x="56" y="140" width="28" height="28" rx="3" ry="3" fill="#fe640b"></rect><rect x="84" y="140" width="28" height="28" rx="3" ry="3" fill="#df8e1d"></rect></g>
  <g transform="translate(540,138)"><rect x="28" y="0" width="28" height="28" rx="3" ry="3" fill="#04a5e5"></rect><rect x="56" y="0" width="28" height="28" rx="3" ry="3" fill="#1e66f5"></rect><rect x="84" y="0" width="28" height="28" rx="3" ry="3" fill="#7287fd"></rect><rect x="0" y="28" width="28" height="28" rx="3" ry="3" fill="#04a5e5"></rect><rect x="112" y="28" width="28" height="28" rx="3" ry="3" fill="#ea76cb"></rect><rect x="0" y="56" width="28" height="28" rx="3" ry="3" fill="#1e66f5"></rect><rect x="112" y="56" width="28" height="28" rx="3" ry="3" fill="#fe640b"></rect><rect x="0" y="84" width="28" height="28" rx="3" ry="3" fill="#7287fd"></rect><rect x="112" y="84" width="28" height="28" rx="3" ry="3" fill="#df8e1d"></rect><rect x="28" y="112" width="28" height="28" rx="3" ry="3" fill="#ea76cb"></rect><rect x="56" y="112" width="28" height="28" rx="3" ry="3" fill="#fe640b"></rect><rect x="84" y="112" width="28" height="28" rx="3" ry="3" fill="#df8e1d"></rect></g>
  <g transform="translate(700,138)"><rect x="0" y="0" width="28" height="28" rx="3" ry="3" fill="#04a5e5"></rect><rect x="112" y="0" width="28" height="28" rx="3" ry="3" fill="#df8e1d"></rect><rect x="28" y="28" width="28" height="28" rx="3" ry="3" fill="#1e66f5"></rect><rect x="84" y="28" width="28" height="28" rx="3" ry="3" fill="#fe640b"></rect><rect x="56" y="56" width="28" height="28" rx="3" ry="3" fill="#8839ef"></rect><rect x="28" y="84" width="28" height="28" rx="3" ry="3" fill="#7287fd"></rect><rect x="84" y="84" width="28" height="28" rx="3" ry="3" fill="#ea76cb"></rect><rect x="0" y="112" width="28" height="28" rx="3" ry="3" fill="#7287fd"></rect><rect x="112" y="112" width="28" height="28" rx="3" ry="3" fill="#40a02b"></rect></g>
  </g>

  <g><rect x="380.0" y="326.0" width="285.3" height="40" rx="20" ry="20" fill="#ffffff" stroke="#d3d2dc" stroke-width="1.25"></rect><text x="522.7" y="346.0" fill="#1e66f5" font-family="Inter, system-ui, sans-serif" font-size="18" font-weight="600" text-anchor="middle" dominant-baseline="middle">Hybrid LiteRT + llama.cpp</text></g>
  <g><rect x="677.3" y="326.0" width="193.3" height="40" rx="20" ry="20" fill="#ffffff" stroke="#d3d2dc" stroke-width="1.25"></rect><text x="774.0" y="346.0" fill="#179299" font-family="Inter, system-ui, sans-serif" font-size="18" font-weight="600" text-anchor="middle" dominant-baseline="middle">GPU · CPU · NPU</text></g>
  <g><rect x="882.7" y="326.0" width="202.5" height="40" rx="20" ry="20" fill="#ffffff" stroke="#d3d2dc" stroke-width="1.25"></rect><text x="983.9" y="346.0" fill="#40a02b" font-family="Inter, system-ui, sans-serif" font-size="18" font-weight="600" text-anchor="middle" dominant-baseline="middle">Stable Diffusion</text></g>
  <g><rect x="1097.2" y="326.0" width="82.8" height="40" rx="20" ry="20" fill="#ffffff" stroke="#d3d2dc" stroke-width="1.25"></rect><text x="1138.6" y="346.0" fill="#df8e1d" font-family="Inter, system-ui, sans-serif" font-size="18" font-weight="600" text-anchor="middle" dominant-baseline="middle">MCP</text></g>
  <g><rect x="380.0" y="376.0" width="141.7" height="40" rx="20" ry="20" fill="#ffffff" stroke="#d3d2dc" stroke-width="1.25"></rect><text x="450.8" y="396.0" fill="#fe640b" font-family="Inter, system-ui, sans-serif" font-size="18" font-weight="600" text-anchor="middle" dominant-baseline="middle">Whisper</text></g>
  <g><rect x="533.7" y="376.0" width="174.4" height="40" rx="20" ry="20" fill="#ffffff" stroke="#d3d2dc" stroke-width="1.25"></rect><text x="620.9" y="396.0" fill="#8839ef" font-family="Inter, system-ui, sans-serif" font-size="18" font-weight="600" text-anchor="middle" dominant-baseline="middle">Supertonic</text></g>
  <g><rect x="720.1" y="376.0" width="119.9" height="40" rx="20" ry="20" fill="#ffffff" stroke="#d3d2dc" stroke-width="1.25"></rect><text x="780.0" y="396.0" fill="#ea76cb" font-family="Inter, system-ui, sans-serif" font-size="18" font-weight="600" text-anchor="middle" dominant-baseline="middle">Piper</text></g>
  <g><rect x="851.9" y="376.0" width="130.8" height="40" rx="20" ry="20" fill="#ffffff" stroke="#d3d2dc" stroke-width="1.25"></rect><text x="917.3" y="396.0" fill="#d20f39" font-family="Inter, system-ui, sans-serif" font-size="18" font-weight="600" text-anchor="middle" dominant-baseline="middle">Kokoro</text></g>
  <g><rect x="994.7" y="376.0" width="185.3" height="40" rx="20" ry="20" fill="#ffffff" stroke="#d3d2dc" stroke-width="1.25"></rect><text x="1087.4" y="396.0" fill="#04a5e5" font-family="Inter, system-ui, sans-serif" font-size="18" font-weight="600" text-anchor="middle" dominant-baseline="middle">Sense Voice</text></g>
  <g><rect x="380.0" y="426.0" width="159.8" height="40" rx="20" ry="20" fill="#ffffff" stroke="#d3d2dc" stroke-width="1.25"></rect><text x="459.9" y="446.0" fill="#7287fd" font-family="Inter, system-ui, sans-serif" font-size="18" font-weight="600" text-anchor="middle" dominant-baseline="middle">GGUF Import</text></g>
  <g><rect x="551.8" y="426.0" width="197.4" height="40" rx="20" ry="20" fill="#ffffff" stroke="#d3d2dc" stroke-width="1.25"></rect><text x="650.5" y="446.0" fill="#1e66f5" font-family="Inter, system-ui, sans-serif" font-size="18" font-weight="600" text-anchor="middle" dominant-baseline="middle">Free Talk · S2S</text></g>
  <g><rect x="761.2" y="426.0" width="159.8" height="40" rx="20" ry="20" fill="#ffffff" stroke="#d3d2dc" stroke-width="1.25"></rect><text x="841.1" y="446.0" fill="#179299" font-family="Inter, system-ui, sans-serif" font-size="18" font-weight="600" text-anchor="middle" dominant-baseline="middle">Vision Talk</text></g>
  <g><rect x="933.0" y="426.0" width="84.6" height="40" rx="20" ry="20" fill="#ffffff" stroke="#d3d2dc" stroke-width="1.25"></rect><text x="975.3" y="446.0" fill="#40a02b" font-family="Inter, system-ui, sans-serif" font-size="18" font-weight="600" text-anchor="middle" dominant-baseline="middle">RAG</text></g>
  <g><rect x="1029.6" y="426.0" width="150.4" height="40" rx="20" ry="20" fill="#ffffff" stroke="#d3d2dc" stroke-width="1.25"></rect><text x="1104.8" y="446.0" fill="#df8e1d" font-family="Inter, system-ui, sans-serif" font-size="18" font-weight="600" text-anchor="middle" dominant-baseline="middle">Agent Mode</text></g>
  <g><rect x="380.0" y="476.0" width="216.9" height="40" rx="20" ry="20" fill="#ffffff" stroke="#d3d2dc" stroke-width="1.25"></rect><text x="488.5" y="496.0" fill="#fe640b" font-family="Inter, system-ui, sans-serif" font-size="18" font-weight="600" text-anchor="middle" dominant-baseline="middle">Document Analysis</text></g>
  <g><rect x="608.9" y="476.0" width="188.6" height="40" rx="20" ry="20" fill="#ffffff" stroke="#d3d2dc" stroke-width="1.25"></rect><text x="703.3" y="496.0" fill="#8839ef" font-family="Inter, system-ui, sans-serif" font-size="18" font-weight="600" text-anchor="middle" dominant-baseline="middle">Encrypted Chat</text></g>
  <g><rect x="809.6" y="476.0" width="188.6" height="40" rx="20" ry="20" fill="#ffffff" stroke="#d3d2dc" stroke-width="1.25"></rect><text x="903.9" y="496.0" fill="#ea76cb" font-family="Inter, system-ui, sans-serif" font-size="18" font-weight="600" text-anchor="middle" dominant-baseline="middle">Biometric Lock</text></g>
  <g><rect x="1010.2" y="476.0" width="169.8" height="40" rx="20" ry="20" fill="#ffffff" stroke="#d3d2dc" stroke-width="1.25"></rect><text x="1095.1" y="496.0" fill="#d20f39" font-family="Inter, system-ui, sans-serif" font-size="18" font-weight="600" text-anchor="middle" dominant-baseline="middle">Hard Offline</text></g>
  <g><rect x="380.0" y="526.0" width="132.4" height="40" rx="20" ry="20" fill="#ffffff" stroke="#d3d2dc" stroke-width="1.25"></rect><text x="446.2" y="546.0" fill="#04a5e5" font-family="Inter, system-ui, sans-serif" font-size="18" font-weight="600" text-anchor="middle" dominant-baseline="middle">Upscale</text></g>
  <g><rect x="524.4" y="526.0" width="244.5" height="40" rx="20" ry="20" fill="#ffffff" stroke="#d3d2dc" stroke-width="1.25"></rect><text x="646.7" y="546.0" fill="#7287fd" font-family="Inter, system-ui, sans-serif" font-size="18" font-weight="600" text-anchor="middle" dominant-baseline="middle">Background Removal</text></g>
  <g><rect x="780.9" y="526.0" width="244.5" height="40" rx="20" ry="20" fill="#ffffff" stroke="#d3d2dc" stroke-width="1.25"></rect><text x="903.1" y="546.0" fill="#1e66f5" font-family="Inter, system-ui, sans-serif" font-size="18" font-weight="600" text-anchor="middle" dominant-baseline="middle">Facial Recognition</text></g>
  <g><rect x="1037.4" y="526.0" width="142.6" height="40" rx="20" ry="20" fill="#ffffff" stroke="#d3d2dc" stroke-width="1.25"></rect><text x="1108.7" y="546.0" fill="#179299" font-family="Inter, system-ui, sans-serif" font-size="18" font-weight="600" text-anchor="middle" dominant-baseline="middle">Nano Hub</text></g>
  <text x="780" y="600" text-anchor="middle" font-family="Inter, system-ui, sans-serif" font-size="21" letter-spacing="-0.2"><tspan fill="#363a4f" font-weight="700">Privacy-focused</tspan><tspan fill="#7c7f93" font-weight="400"> fork of </tspan><tspan fill="#4c4f69" font-weight="500">Google AI Edge Gallery</tspan></text>
  <text x="780" y="628" text-anchor="middle" font-family="JetBrains Mono, ui-monospace, monospace" font-size="14" letter-spacing="1.4" fill="#5c6178">CROSS-PLATFORM<tspan dx="12" fill="#b0b3c0">·</tspan><tspan dx="7" fill="#5c6178">APACHE 2.0</tspan><tspan dx="12" fill="#b0b3c0">·</tspan><tspan dx="7" fill="#5c6178">KOTLIN + COMPOSE</tspan><tspan dx="12" fill="#b0b3c0">·</tspan><tspan dx="7" fill="#5c6178">100% ON-DEVICE</tspan></text>
</svg>